<svg version="1" xmlns="http://www.w3.org/2000/svg" width="1768" height="1768" viewBox="0 0 1326.000000 1326.000000"><path d="M155 462.7l.1 307.8 38.2 21.9c21 12.1 64.1 36.9 95.7 55.1 125 72 152.1 87.6 153.4 88.1.8.3 10.4-4.6 21.3-10.9 34.3-19.9 77.5-44.9 152.1-87.7l72.1-41.5.1-119.5V556.5l32.2-18.5c17.7-10.2 32.5-18.7 33-18.8.4-.2.8 70.4.8 157v157.3l-20.8 11.9c-11.4 6.6-26.3 15.2-33.2 19.2-6.9 3.9-23.7 13.7-37.5 21.6-37.7 21.7-92.9 53.6-142 82l-44 25.4-.3 88.7-.2 88.7h695V863.2l-.1-307.7-15.7-8.9c-14.2-8.1-153.8-88.4-238.4-137.2l-33.7-19.5-58.3 33.7c-32.1 18.5-87 50.1-122 70.2l-63.7 36.7-.3 119.5-.3 119.5-33 19.1-33 19.1-.3-157.1-.3-157.1 2.3-1.8c1.3-.9 63.7-37.2 138.8-80.5l136.5-78.8.3-88.7.2-88.7H155v307.7z"/><path d="M916.2 243.7l.3 88.7L928 339c6.3 3.7 19.2 11.1 28.5 16.5 9.4 5.4 53 30.6 97 56s87.2 50.3 95.9 55.4c8.8 5.1 17.2 9.9 18.8 10.7l2.8 1.5V155H916l.2 88.7zM155 1008.5V1171h255V993.4L386.8 980c-12.8-7.3-32.7-18.8-44.3-25.5-11.5-6.7-37.6-21.8-58-33.5-20.3-11.7-46.4-26.8-58-33.5-11.5-6.7-30-17.4-41-23.7-11-6.4-22.4-12.9-25.2-14.7l-5.3-3v162.4z"/></svg>